/* XPM */
static char *result[] = {
/* columns rows colors chars-per-pixel */
"36 36 2 1 ",
"  c #232323",
". c white",
/* pixels */
"....................................",
".                                  .",
".                                  .",
".                                  .",
".                                  .",
".                                  .",
".                                  .",
".                                  .",
".         ...............          .",
".         ...............          .",
".           ..............         .",
".           ..............         .",
".       ..........    ......       .",
".       ..........    ......       .",
".       ..........    ......       .",
".       ..........    ......       .",
".       ..........    ......       .",
".       ..........    ......       .",
".       ..........    ......       .",
".       ..........    ......       .",
".       ..........    ......       .",
".       ..........    ......       .",
".       ....................       .",
".       ....................       .",
".       ....................       .",
".        .................         .",
".        .................         .",
".         ...............          .",
".                                  .",
".                                  .",
".                                  .",
".                                  .",
".                                  .",
".                                  .",
".                                  .",
"...................................."
};
