/* XPM */
static char *_193c9b1a6ad4a0383a4c91d257100e3H3MmnhuV2brwc5Ee[] = {
/* columns rows colors chars-per-pixel */
"36 36 2 1 ",
"  c #441B65",
". c white",
/* pixels */
"....................................",
".                                  .",
".                                  .",
".                                  .",
".                                  .",
".                                  .",
".                                  .",
".                                  .",
".           ..........             .",
".           ..........             .",
".          .   .........           .",
".          .   .........           .",
".          . ...........           .",
".           ............           .",
".            ...........           .",
".            ...........           .",
".            ...........           .",
".            ...........           .",
".            ...........           .",
".            ...........           .",
".            ...........           .",
".            ...........           .",
".            ...........           .",
".            ...........           .",
".            ...........           .",
".            ...........           .",
".            ...........           .",
".              .......             .",
".                                  .",
".                                  .",
".                                  .",
".                                  .",
".                                  .",
".                                  .",
".                                  .",
"...................................."
};
