/* XPM */
static char *result[] = {
/* columns rows colors chars-per-pixel */
"36 36 3 1 ",
"  c #ED1C24",
". c #FDE3E4",
"X c white",
/* pixels */
"....................................",
".                                  .",
".                                  .",
".                                  .",
".                                  .",
".                                  .",
".                                  .",
".                                  .",
".                                  .",
".          XXXXXXXXXXXXXXX         .",
".         X   XXXXXXXXXXXXX        .",
".         X   XXXXXXXXXXXXX        .",
".         X XXXXXXXXXXXXXX         .",
".         XXXXXXXX                 .",
".         XXXXXXXX                 .",
".         XXXXXXXXXXXXXXXX         .",
".         XXXXXXXXXXXXXXXXX        .",
".         XXXXXXXXXXXXXXXX         .",
".         XXXXXXXX                 .",
".         XXXXXXXX                 .",
".         XXXXXXXXXXXXXXXX         .",
".         XXXXXXXXXXXXXXXXX        .",
".         XXXXXXXXXXXXXXXXX        .",
".         XXXXXXXXXXXXXXXXX        .",
".         XXXXXXXXXXXXXXXXX        .",
".          XXXXXXXXXXXXXXX         .",
".                                  .",
".                                  .",
".                                  .",
".                                  .",
".                                  .",
".                                  .",
".                                  .",
".                                  .",
".                                  .",
"...................................."
};
